Patient4_TMGait_0pt8_01_right_43_GRF.mot
version=1
nRows=45
nColumns=19
inDegrees=no
endheader
time	F1x	F1y	F1z	M1x	M1y	M1z	F2x	F2y	F2z	M2x	M2y	M2z	EC1x	EC1y	EC1z	EC2x	EC2y	EC2z
48.29	-40.4581	716.6899	65.8749	-238.7963	-88.0508	815.6716	-20.4163	5.4729	-4.4034	2.9519	8.0108	10.9192	-0.0592	0.0182	-0.0073	-0.0462	0.0165	0.9585
48.3017	-29.9668	723.2586	63.9081	-241.7842	-81.5058	822.6829	-13.9446	4.5178	-3.1808	2.376	5.6854	8.3511	-0.0592	0.0182	-0.0073	-0.0462	0.0165	0.9585
48.3134	-20.2392	730.9742	61.9587	-245.1366	-75.2055	829.4898	-8.4788	3.7507	-2.0959	1.8871	3.6916	6.2752	-0.0592	0.0182	-0.0073	-0.0462	0.0165	0.9585
48.3251	-11.6536	739.2282	60.1402	-248.6028	-69.4421	835.3803	-4.2962	3.2063	-1.2339	1.5181	2.1512	4.7685	-0.0592	0.0182	-0.0073	-0.0462	0.0165	0.9585
48.3369	-4.2266	747.3193	58.5886	-251.9117	-64.3856	839.7917	-1.4233	2.8899	-0.61227	1.2733	1.0784	3.8318	-0.0592	0.0182	-0.0073	-0.0462	0.0165	0.9585
48.3486	2.1778	754.562	57.406	-254.8073	-60.1137	842.2597	0.35388	2.7477	-0.21916	1.1309	0.41751	3.3301	-0.0592	0.0182	-0.0073	-0.0462	0.0165	0.9585
48.3603	7.7333	760.4308	56.676	-257.0949	-56.6735	842.5583	1.251	2.7535	-0.0093549	1.0676	0.090433	3.1808	-0.0592	0.0182	-0.0073	-0.0462	0.0165	0.9585
48.372	12.5955	764.5998	56.4255	-258.6616	-54.0548	840.6471	1.5407	2.7893	0.054988	1.0344	0.014229	3.1643	-0.0592	0.0182	-0.0073	-0.0462	0.0165	0.9585
48.3837	16.8752	766.9591	56.6214	-259.4781	-52.1891	836.6833	1.422	2.7765	0.013148	0.99051	0.12316	3.1475	-0.0592	0.0182	-0.0073	-0.0462	0.0165	0.9585
48.3954	20.6945	767.5932	57.1976	-259.5887	-50.9586	830.9591	1.086	2.5565	-0.10854	0.87419	0.35707	2.8823	-0.0592	0.0182	-0.0073	-0.0462	0.0165	0.9585
48.4071	24.1731	766.7517	58.0535	-259.096	-50.2056	823.8622	0.64583	2.0234	-0.2784	0.63677	0.66766	2.2191	-0.0592	0.0182	-0.0073	-0.0462	0.0165	0.9585
48.4189	27.4266	764.7342	59.1358	-258.1252	-49.8138	815.7642	0.22782	1.0297	-0.47746	0.22228	1.0053	0.93802	-0.0592	0.0182	-0.0073	-0.0462	0.0165	0.9585
48.4306	30.6088	761.9439	60.4012	-256.8278	-49.6676	807.1143	-0.11116	-0.49633	-0.67176	-0.40027	1.311	-1.061	-0.0592	0.0182	-0.0073	-0.0462	0.0165	0.9585
48.4423	33.8418	758.8133	61.8734	-255.3566	-49.7186	798.3425	-0.26715	-2.5818	-0.83233	-1.2372	1.5075	-3.8219	-0.0592	0.0182	-0.0073	-0.0462	0.0165	0.9585
48.454	37.2103	755.8348	63.5544	-253.8787	-49.9194	789.9321	-0.18394	-5.1021	-0.89045	-2.2376	1.4786	-7.1665	-0.0592	0.0182	-0.0073	-0.0462	0.0165	0.9585
48.4657	40.7756	753.5187	65.4752	-252.5679	-50.2652	782.3847	0.26088	-7.7651	-0.76318	-3.2765	1.0679	-10.711	-0.0592	0.0182	-0.0073	-0.0462	0.0165	0.9585
48.4774	44.5423	752.3425	67.598	-251.5884	-50.7099	776.1606	1.1473	-9.9607	-0.32776	-4.1025	0.075278	-13.6343	-0.0592	0.0182	-0.0073	-0.0462	0.0165	0.9585
48.4891	48.4824	752.6358	69.9087	-251.0539	-51.2462	771.5599	2.5864	-10.7145	0.55248	-4.3139	-1.7186	-14.6542	-0.0592	0.0182	-0.0073	-0.0462	0.0165	0.9585
48.5009	52.562	754.4658	72.326	-250.9975	-51.816	768.6251	4.584	-8.584	2.0357	-3.3202	-4.5208	-11.8521	-0.0592	0.0182	-0.0073	-0.0462	0.0165	0.9585
48.5126	56.7315	757.5155	74.766	-251.333	-52.3621	766.9944	7.1012	-1.6925	4.2371	-0.35163	-8.4505	-2.7374	-0.0592	0.0182	-0.0073	-0.0462	0.0165	0.9585
48.5243	60.964	761.045	77.0388	-251.8439	-52.7189	765.9058	9.885	12.2189	7.1909	5.5082	-13.4344	15.7136	-0.0592	0.0182	-0.0073	-0.0462	0.0165	0.9585
48.536	65.2493	763.8418	78.894	-252.1642	-52.6549	764.1539	12.459	35.4918	10.7592	15.1984	-19.0673	46.6189	-0.0592	0.0182	-0.0073	-0.0462	0.0165	0.9585
48.5477	69.5347	764.2327	79.9945	-251.781	-51.8725	760.0968	13.9478	70.0629	14.5305	29.467	-24.4163	92.5666	-0.0592	0.0182	-0.0073	-0.0462	0.0165	0.9585
48.5594	73.6959	760.0447	79.9958	-250.0144	-50.098	751.6458	13.0414	116.5999	17.7063	48.5247	-27.8716	154.4551	-0.0592	0.0182	-0.0073	-0.0462	0.0165	0.9585
48.5711	77.4529	748.7717	78.5652	-246.0651	-47.1257	736.4425	8.1839	173.6909	19.1799	71.7033	-27.3558	230.4518	-0.0592	0.0182	-0.0073	-0.0462	0.0165	0.9585
48.5829	80.3792	727.9395	75.4613	-239.13	-42.8901	712.2116	-1.0813	237.4777	17.7016	97.3348	-21.0832	315.4362	-0.0592	0.0182	-0.0073	-0.0462	0.0165	0.9585
48.5946	81.9416	695.5845	70.5824	-228.5557	-37.5011	677.2349	-13.293	302.0898	12.5146	122.9786	-8.7497	401.4579	-0.0592	0.0182	-0.0073	-0.0462	0.0165	0.9585
48.6063	81.5957	650.6771	64.0333	-213.9789	-31.2745	630.6894	-26.0813	360.9046	4.023	146.0198	8.05	479.3659	-0.0592	0.0182	-0.0073	-0.0462	0.0165	0.9585
48.618	78.8872	593.4811	56.1492	-195.4433	-24.7059	572.9685	-37.4265	410.4347	-6.6136	165.1344	26.8482	544.197	-0.0592	0.0182	-0.0073	-0.0462	0.0165	0.9585
48.6297	73.5977	525.7553	47.4122	-173.4637	-18.3357	505.8408	-46.5828	451.698	-17.6511	180.8045	45.0924	597.1153	-0.0592	0.0182	-0.0073	-0.0462	0.0165	0.9585
48.6414	65.7931	450.563	38.445	-148.9795	-12.7091	432.2523	-53.3403	487.6612	-27.9806	194.2942	61.241	642.0216	-0.0592	0.0182	-0.0073	-0.0462	0.0165	0.9585
48.6531	55.8626	371.905	29.8336	-123.254	-8.2103	355.9701	-57.8557	521.2783	-36.6321	206.8505	74.1479	682.8883	-0.0592	0.0182	-0.0073	-0.0462	0.0165	0.9585
48.6649	44.4884	294.2738	22.0391	-97.7451	-5.0008	281.2121	-60.252	554.2498	-43.1856	219.1861	83.367	722.0326	-0.0592	0.0182	-0.0073	-0.0462	0.0165	0.9585
48.6766	32.6712	222.0288	15.3757	-73.9042	-3.0011	212.0105	-60.8141	586.8723	-47.8424	231.408	89.2859	759.9861	-0.0592	0.0182	-0.0073	-0.0462	0.0165	0.9585
48.6883	21.554	158.7182	10.0155	-52.9318	-1.9537	151.5996	-59.8985	618.4996	-51.1266	243.2215	92.7634	796.0607	-0.0592	0.0182	-0.0073	-0.0462	0.0165	0.9585
48.7	12.1383	106.3692	5.9797	-35.535	-1.5225	101.7531	-58.0034	648.0941	-53.798	254.1565	94.9638	829.144	-0.0592	0.0182	-0.0073	-0.0462	0.0165	0.9585
48.7117	4.9145	65.4751	3.1137	-21.9121	-1.3907	62.8428	-55.5891	674.6391	-56.3581	263.7841	96.7511	858.1197	-0.0592	0.0182	-0.0073	-0.0462	0.0165	0.9585
48.7234	-0.044298	35.4037	1.1988	-11.8802	-1.3402	34.2181	-53.1088	697.5016	-59.1775	271.8435	98.7722	882.3564	-0.0592	0.0182	-0.0073	-0.0462	0.0165	0.9585
48.7351	-2.9754	14.8345	0.043392	-5.0135	-1.2831	14.6272	-50.8483	716.3268	-62.2056	278.2322	101.1184	901.4854	-0.0592	0.0182	-0.0073	-0.0462	0.0165	0.9585
48.7469	-4.2696	2.0447	-0.55238	-0.74429	-1.1777	2.4258	-49.0015	731.0612	-65.1815	282.9887	103.5435	915.5063	-0.0592	0.0182	-0.0073	-0.0462	0.0165	0.9585
48.7586	-4.492	-4.814	-0.74333	1.5447	-1.0716	-4.1287	-47.4995	741.8938	-67.6434	286.2634	105.4822	924.6415	-0.0592	0.0182	-0.0073	-0.0462	0.0165	0.9585
48.7703	-4.0947	-7.5394	-0.70206	2.4543	-0.96278	-6.7621	-46.2526	749.1208	-69.2566	288.2353	106.4857	929.2607	-0.0592	0.0182	-0.0073	-0.0462	0.0165	0.9585
48.782	-3.4395	-7.6629	-0.51923	2.4988	-0.88981	-6.9275	-45.0629	752.997	-69.8751	289.0504	106.3099	929.6523	-0.0592	0.0182	-0.0073	-0.0462	0.0165	0.9585
48.7937	-2.7247	-6.3858	-0.30425	2.0757	-0.82344	-5.7715	-43.8222	753.7906	-69.6251	288.8191	105.0549	926.156	-0.0592	0.0182	-0.0073	-0.0462	0.0165	0.9585
48.8054	-2.0926	-4.5301	-0.08826	1.4605	-0.78503	-4.0647	-42.3948	751.7782	-68.7668	287.6398	102.9795	919.0962	-0.0592	0.0182	-0.0073	-0.0462	0.0165	0.9585
